<svg width="20" height="20" viewBox="0 0 20 20" fill="none" xmlns="http://www.w3.org/2000/svg">
<path fill-rule="evenodd" clip-rule="evenodd" d="M14.1357 14.9967C12.8152 16.1209 11.1035 16.7993 9.23341 16.7993C5.05446 16.7993 1.66675 13.4116 1.66675 9.23268C1.66675 5.05373 5.05446 1.66602 9.23341 1.66602C13.4124 1.66602 16.8001 5.05373 16.8001 9.23268C16.8001 11.0915 16.1298 12.7938 15.0178 14.111L18.6498 17.743L17.7659 18.6269L14.1357 14.9967ZM15.5501 9.23268C15.5501 12.7213 12.722 15.5493 9.23341 15.5493C5.74482 15.5493 2.91675 12.7213 2.91675 9.23268C2.91675 5.74408 5.74482 2.91602 9.23341 2.91602C12.722 2.91602 15.5501 5.74408 15.5501 9.23268Z" fill="white"/>
</svg>
